HIERARCHY
ROOT Hips
{
	OFFSET 0.000000 0.000000 0.000000
	CHANNELS 6 Xposition Yposition Zposition Xrotation Yrotation Zrotation
	JOINT LeftUpLeg_virtual
	{
		OFFSET 0.000000 0.000000 0.000000
		CHANNELS 3 Xrotation Yrotation Zrotation
		JOINT LeftUpLeg
		{
			OFFSET 13.026900 -6.336304 -1.092800
			CHANNELS 3 Xrotation Yrotation Zrotation
			JOINT LeftLeg
			{
				OFFSET 0.524474 -46.096886 9.782700
				CHANNELS 3 Xrotation Yrotation Zrotation
				JOINT LeftFoot
				{
					OFFSET -0.524474 -53.427422 -12.948200
					CHANNELS 3 Xrotation Yrotation Zrotation
					JOINT LeftToeBase
					{
						OFFSET 0.192200 -14.009700 16.364100
						CHANNELS 3 Xrotation Yrotation Zrotation
						JOINT LeftToe_End
						{
							OFFSET -1.784700 -0.561700 9.474800
							CHANNELS 3 Xrotation Yrotation Zrotation
							End Site
							{
								OFFSET 0 0 0
							}
						}
					}
				}
			}
		}
	}
	JOINT RightUpLeg_virtual
	{
		OFFSET 0.000000 0.000000 0.000000
		CHANNELS 3 Xrotation Yrotation Zrotation
		JOINT RightUpLeg
		{
			OFFSET -12.883000 -6.336304 -1.092800
			CHANNELS 3 Xrotation Yrotation Zrotation
			JOINT RightLeg
			{
				OFFSET -0.524587 -46.096825 9.782800
				CHANNELS 3 Xrotation Yrotation Zrotation
				JOINT RightFoot
				{
					OFFSET 0.524587 -53.427383 -12.948300
					CHANNELS 3 Xrotation Yrotation Zrotation
					JOINT RightToeBase
					{
						OFFSET -0.192200 -14.009700 16.364100
						CHANNELS 3 Xrotation Yrotation Zrotation
						JOINT RightToe_End
						{
							OFFSET 1.784700 -0.561700 9.474800
							CHANNELS 3 Xrotation Yrotation Zrotation
							End Site
							{
								OFFSET 0 0 0
							}
						}
					}
				}
			}
		}
	}
	JOINT Spine_virtual
	{
		OFFSET 0.000000 0.000000 0.000000
		CHANNELS 3 Xrotation Yrotation Zrotation
		JOINT Spine
		{
			OFFSET 0.072000 7.257294 -0.789700
			CHANNELS 3 Xrotation Yrotation Zrotation
			JOINT Spine1
			{
				OFFSET 0.000000 12.508769 -0.658067
				CHANNELS 3 Xrotation Yrotation Zrotation
				JOINT Spine1_split
				{
					OFFSET 0.000000 12.508769 -0.658067
					CHANNELS 3 Xrotation Yrotation Zrotation
					JOINT Spine2
					{
						OFFSET 0.000000 12.508769 -0.658067
						CHANNELS 3 Xrotation Yrotation Zrotation
						JOINT Neck_virtual
						{
							OFFSET 0.000000 0.000000 0.000000
							CHANNELS 3 Xrotation Yrotation Zrotation
							JOINT Neck
							{
								OFFSET 0.000000 14.033295 7.520400
								CHANNELS 3 Xrotation Yrotation Zrotation
								JOINT Head
								{
									OFFSET 0.000000 8.198502 5.703100
									CHANNELS 3 Xrotation Yrotation Zrotation
									JOINT HeadTop_End
									{
										OFFSET 0.000000 17.760803 13.332701
										CHANNELS 3 Xrotation Yrotation Zrotation
										End Site
										{
											OFFSET 0 0 0
										}
									}
								}
							}
						}
						JOINT LeftShoulder_virtual
						{
							OFFSET 0.000000 0.000000 0.000000
							CHANNELS 3 Xrotation Yrotation Zrotation
							JOINT LeftShoulder
							{
								OFFSET 6.292450 5.785301 -0.669000
								CHANNELS 3 Xrotation Yrotation Zrotation
								JOINT LeftShoulder_split
								{
									OFFSET 6.292450 5.785301 -0.669000
									CHANNELS 3 Xrotation Yrotation Zrotation
									JOINT LeftArm
									{
										OFFSET 13.907140 -6.093903 1.965100
										CHANNELS 3 Xrotation Yrotation Zrotation
										JOINT LeftForeArm
										{
											OFFSET 34.140198 0.000000 0.000000
											CHANNELS 3 Xrotation Yrotation Zrotation
											JOINT LeftHand
											{
												OFFSET 40.960209 0.000000 0.000000
												CHANNELS 3 Xrotation Yrotation Zrotation
												End Site
												{
													OFFSET 0 0 0
												}
											}
										}
									}
								}
							}
						}
						JOINT RightShoulder_virtual
						{
							OFFSET 0.000000 0.000000 0.000000
							CHANNELS 3 Xrotation Yrotation Zrotation
							JOINT RightShoulder
							{
								OFFSET -6.292450 5.785301 -0.669000
								CHANNELS 3 Xrotation Yrotation Zrotation
								JOINT RightShoulder_split
								{
									OFFSET -6.292450 5.785301 -0.669000
									CHANNELS 3 Xrotation Yrotation Zrotation
									JOINT RightArm
									{
										OFFSET -13.907140 -6.093903 1.965100
										CHANNELS 3 Xrotation Yrotation Zrotation
										JOINT RightForeArm
										{
											OFFSET -34.140198 0.000000 0.000000
											CHANNELS 3 Xrotation Yrotation Zrotation
											JOINT RightHand
											{
												OFFSET -40.960209 0.000000 0.000000
												CHANNELS 3 Xrotation Yrotation Zrotation
												End Site
												{
													OFFSET 0 0 0
												}
											}
										}
									}
								}
							}
						}
					}
				}
			}
		}
	}
}
MOTION
Frames: 9
Frame Time: 0.03333333
-1.196232 95.397926 -0.352894 0.000000 0.000000 0.000000 -4.106305 -49.911747 0.574192 -32.338883 9.744128 19.454689 57.231183 -5.708174 6.048329 -19.965295 -6.698193 -13.413797 -7.849035 -0.220556 -0.325320 0.000000 0.000000 0.000000 -5.529094 -46.083891 1.295511 -21.760873 -10.974904 -27.894035 52.424349 -6.473074 -9.452915 -21.564429 -6.681985 22.974369 -1.848409 0.650981 -0.233597 0.000000 0.000000 0.000000 -3.976430 -47.568333 0.994948 10.105244 7.783378 -1.450171 2.190758 1.688160 -1.240126 0.117009 -1.309504 0.783438 0.000000 0.000000 0.000000 2.146991 1.385230 -0.726046 -0.756599 13.621829 4.040001 7.606959 21.637419 -5.889260 0.000000 0.000000 0.000000 3.504878 1.011259 -0.942389 1.546041 3.901275 -6.293718 -3.177019 -1.299439 -1.540781 -51.012234 3.028329 -50.176144 179.785769 -71.770781 -178.249810 0.000000 0.000000 0.000000 3.546178 1.500302 -0.538635 3.761457 11.285778 -6.233891 -1.303336 -2.427816 -0.280227 -48.592080 29.273839 86.284578 178.475425 65.138401 -178.731857 0.000000 0.000000 0.000000 
-0.979904 94.878197 -0.468273 0.000000 0.000000 0.000000 -4.401711 -50.169467 0.442973 -32.417502 9.325058 19.037298 57.160388 -4.285944 5.557866 -20.359286 -6.224231 -11.817637 -7.592650 -0.149291 -0.865880 0.000000 0.000000 0.000000 -5.411482 -45.608151 1.282137 -22.049140 -11.057556 -28.059990 53.090756 -6.189287 -9.380225 -22.405855 -6.364897 23.047314 -1.116355 0.683381 -0.316623 0.000000 0.000000 0.000000 -4.394568 -47.258140 0.730662 10.461557 7.762559 -1.452948 2.343257 1.559058 -1.112619 0.525634 -1.605268 1.007651 0.000000 0.000000 0.000000 2.109557 1.249341 -0.587567 -0.580240 13.548894 3.821995 8.038205 21.515786 -5.758776 0.000000 0.000000 0.000000 3.444478 0.952586 -0.904569 1.561798 4.009450 -6.651231 -3.024307 -1.151607 -1.277745 -50.973125 3.158463 -50.305549 179.967083 -72.058516 -178.162411 0.000000 0.000000 0.000000 3.606217 1.422909 -0.511763 3.885746 11.714117 -6.206413 -1.670335 -2.987643 -0.327343 -50.314199 28.520918 86.523955 178.815363 65.229720 -179.247824 0.000000 0.000000 0.000000 
-0.829093 94.005844 -0.448368 0.000000 0.000000 0.000000 -5.045183 -50.688828 0.008005 -33.386217 8.429039 18.911836 58.354643 -2.792060 5.116341 -18.937634 -5.917370 -11.197926 -6.861090 -0.134578 -1.169387 0.000000 0.000000 0.000000 -5.677194 -45.431396 0.837408 -22.597642 -11.379216 -28.056622 54.312056 -6.010819 -9.245176 -23.118642 -5.955233 23.237905 -1.067824 0.712827 -0.351560 0.000000 0.000000 0.000000 -5.235863 -47.267843 0.096760 10.809629 7.736654 -1.267410 2.428015 1.381841 -0.925483 0.870903 -1.501254 1.104550 0.000000 0.000000 0.000000 2.055083 1.059812 -0.466199 -0.619776 13.405833 3.550225 8.522678 21.320439 -5.561522 0.000000 0.000000 0.000000 3.393002 0.817737 -0.809967 1.587047 4.028659 -7.215430 -2.689951 -1.107437 -0.981817 -51.133883 3.581772 -50.602498 -179.710200 -72.943354 -177.938818 0.000000 0.000000 0.000000 3.621321 1.257498 -0.433402 3.929346 11.967177 -6.144932 -2.138866 -3.158334 -0.264176 -51.831362 26.950718 85.964672 179.239477 65.868097 -179.980580 0.000000 0.000000 0.000000 
-0.599561 93.005470 -0.418037 0.000000 0.000000 0.000000 -5.952029 -51.229639 -0.599006 -34.709498 6.931989 18.815848 60.068338 -1.889008 4.924400 -15.924866 -6.377377 -11.962926 -7.944834 -0.269284 -0.490540 0.000000 0.000000 0.000000 -6.390516 -45.739639 0.171036 -23.320798 -11.834341 -28.044774 55.729532 -5.866049 -9.143999 -23.825249 -5.449409 23.311627 -1.504006 0.732589 -0.275271 0.000000 0.000000 0.000000 -6.318065 -47.758786 -0.707952 11.060443 7.747594 -0.927431 2.400548 1.240858 -0.738291 0.953479 -0.995301 0.941484 0.000000 0.000000 0.000000 2.011185 0.886661 -0.398729 -0.875451 13.204813 3.272144 8.900510 21.049038 -5.353064 0.000000 0.000000 0.000000 3.326762 0.681654 -0.643489 1.607257 4.010917 -7.813584 -2.348038 -1.301281 -0.672777 -51.385682 4.038095 -50.968787 -179.371969 -73.710179 -177.702275 0.000000 0.000000 0.000000 3.551525 1.060229 -0.329799 3.889237 12.056601 -6.154540 -2.734717 -2.830216 0.106044 -52.413714 25.122549 84.823464 179.530648 66.730675 179.379318 0.000000 0.000000 0.000000 
-0.185328 92.054726 -0.284771 0.000000 0.000000 0.000000 -7.117522 -51.725566 -1.256652 -35.609925 4.970029 18.400953 61.675147 -1.883401 5.095790 -12.544661 -8.011420 -13.832584 -11.110693 -0.619919 1.103935 0.000000 0.000000 0.000000 -7.542234 -46.477583 -0.519428 -24.184247 -12.201985 -28.231238 57.199761 -5.646347 -9.115560 -24.571556 -4.734780 23.057873 -1.666642 0.731800 -0.052575 0.000000 0.000000 0.000000 -7.592548 -48.663520 -1.519849 11.221741 7.799104 -0.538421 2.303862 1.178152 -0.592419 0.692096 -0.411425 0.730892 0.000000 0.000000 0.000000 2.014100 0.797903 -0.379808 -1.262253 13.001355 3.032569 9.085319 20.787124 -5.212338 0.000000 0.000000 0.000000 3.256836 0.617687 -0.412771 1.632695 4.022891 -8.371542 -1.865638 -1.434483 -0.480246 -51.636896 4.289746 -51.318285 -179.246171 -73.953641 -177.702316 0.000000 0.000000 0.000000 3.417788 0.882121 -0.250651 3.825791 12.074132 -6.346096 -3.318086 -1.888868 0.523321 -51.927046 23.273646 83.315180 179.580549 67.440441 179.060362 0.000000 0.000000 0.000000 
0.377550 91.316536 -0.079353 0.000000 0.000000 0.000000 -8.396475 -52.158904 -1.822620 -36.138405 2.917551 17.719894 63.486875 -2.455974 5.342064 -9.929833 -10.407969 -15.924736 -13.346464 -1.018063 2.502498 0.000000 0.000000 0.000000 -8.895986 -47.603693 -1.082788 -25.256675 -12.309959 -28.806176 58.677336 -5.282550 -9.114633 -24.956406 -3.741408 22.678991 -1.569336 0.720863 0.232639 0.000000 0.000000 0.000000 -8.841731 -49.836335 -2.190204 11.307311 7.869687 -0.154967 2.215817 1.183230 -0.494621 0.328902 0.118371 0.489436 0.000000 0.000000 0.000000 2.092648 0.834450 -0.389388 -1.647822 12.857327 2.796442 9.036021 20.711519 -5.226165 0.000000 0.000000 0.000000 3.192036 0.660423 -0.153180 1.666090 4.033965 -8.863015 -1.419664 -1.622146 -0.287591 -51.740971 4.177932 -51.503263 -179.437812 -73.555509 -178.024386 0.000000 0.000000 0.000000 3.276004 0.777764 -0.223666 3.772124 12.143516 -6.788149 -3.680510 -0.671951 1.003426 -50.688654 21.948627 81.851293 179.325606 67.566649 179.174590 0.000000 0.000000 0.000000 
1.006401 90.726250 0.334728 0.000000 0.000000 0.000000 -9.608293 -52.642068 -2.331450 -36.477387 1.077712 17.143479 65.773970 -3.195916 5.382137 -8.260408 -12.768650 -17.847899 -12.558204 -1.154956 3.061044 0.000000 0.000000 0.000000 -10.307746 -49.058974 -1.606719 -26.399883 -11.988366 -29.753930 59.791613 -4.610589 -9.223228 -24.657278 -2.586179 22.918058 -1.806725 0.690733 0.439585 0.000000 0.000000 0.000000 -10.153729 -51.130608 -2.822170 11.382689 7.802660 0.174319 2.206168 1.217051 -0.467854 0.118511 0.106312 0.303295 0.000000 0.000000 0.000000 2.217143 0.959660 -0.409630 -1.910071 12.848750 2.573842 8.819781 20.866786 -5.470417 0.000000 0.000000 0.000000 3.202446 0.776394 0.045262 1.707601 3.945263 -9.184609 -1.196919 -1.851436 -0.101649 -51.551901 3.842284 -51.335026 -179.833594 -72.809489 -178.512950 0.000000 0.000000 0.000000 3.204692 0.767717 -0.255603 3.754216 12.374396 -7.377624 -3.747770 0.233928 1.612336 -49.415094 21.305935 80.376888 179.145671 66.794851 179.341971 0.000000 0.000000 0.000000 
1.687173 90.301651 1.022739 0.000000 0.000000 0.000000 -10.772448 -53.473517 -2.960284 -36.648442 -0.318682 17.111367 68.230714 -3.687285 5.011101 -7.325791 -14.227635 -19.134280 -9.142315 -0.971837 2.705255 0.000000 0.000000 0.000000 -11.590233 -50.512753 -2.256191 -27.257270 -11.325893 -30.891897 60.189184 -3.538173 -9.500361 -23.749951 -1.353866 23.943602 -2.401960 0.654333 0.452349 0.000000 0.000000 0.000000 -11.365343 -52.430697 -3.525729 11.475479 7.491269 0.476775 2.339342 1.233955 -0.465126 0.150621 -0.195763 0.381604 0.000000 0.000000 0.000000 2.336487 1.095051 -0.393439 -1.975647 13.051487 2.378952 8.500733 21.370740 -5.959656 0.000000 0.000000 0.000000 3.313680 0.902360 0.142410 1.772029 3.807361 -9.275598 -1.074316 -1.815098 -0.127040 -51.269592 3.733970 -50.792674 179.563146 -72.230104 -179.186707 0.000000 0.000000 0.000000 3.250360 0.821654 -0.338856 3.713447 12.776835 -7.816580 -3.691985 0.581294 2.301188 -48.739964 21.489332 78.703218 179.371737 65.239583 179.172022 0.000000 0.000000 0.000000 
2.319208 90.084938 1.972698 0.000000 0.000000 0.000000 -11.805583 -54.990386 -3.895408 -36.627139 -1.002869 18.053249 69.953793 -3.392791 4.042415 -7.132781 -14.256627 -19.049174 -5.470987 -0.701859 1.850851 0.000000 0.000000 0.000000 -12.602533 -51.734923 -3.190426 -27.564261 -10.537133 -31.972269 59.568149 -2.200998 -9.836511 -22.573413 -0.253666 25.245624 -2.843215 0.657285 0.280883 0.000000 0.000000 0.000000 -12.234932 -53.522674 -4.408310 11.492139 6.803840 0.865033 2.551877 1.186514 -0.468294 0.437743 -0.456844 0.565215 0.000000 0.000000 0.000000 2.367275 1.124653 -0.328555 -1.813467 13.462676 2.273763 8.255490 22.155124 -6.678773 0.000000 0.000000 0.000000 3.448023 0.944522 0.124703 1.831946 3.594892 -9.095722 -0.995768 -1.499884 -0.311269 -51.255785 4.256193 -49.851307 179.015351 -72.089437 -179.750088 0.000000 0.000000 0.000000 3.364141 0.864313 -0.419310 3.563057 13.158174 -7.848433 -3.675986 0.373250 2.907392 -48.738601 22.799977 76.910546 179.882553 63.244806 178.716380 0.000000 0.000000 0.000000 
